<?xml version="1.0" encoding="UTF-8" standalone="no"?>
<!-- Created with Inkscape (http://www.inkscape.org/) -->

<svg
   version="1.1"
   id="svg2"
   xml:space="preserve"
   width="951.16803"
   height="247.56847"
   viewBox="0 0 951.16802 247.56847"
   sodipodi:docname="ropecon_logo_black.svg"
   inkscape:version="1.1.2 (0a00cf5339, 2022-02-04)"
   xmlns:inkscape="http://www.inkscape.org/namespaces/inkscape"
   xmlns:sodipodi="http://sodipodi.sourceforge.net/DTD/sodipodi-0.dtd"
   xmlns="http://www.w3.org/2000/svg"
   xmlns:svg="http://www.w3.org/2000/svg"><defs
     id="defs6"><clipPath
       clipPathUnits="userSpaceOnUse"
       id="clipPath16"><path
         d="M 0,277.795 H 810.709 V 0 H 0 Z"
         id="path14" /></clipPath></defs><sodipodi:namedview
     id="namedview4"
     pagecolor="#ffffff"
     bordercolor="#666666"
     borderopacity="1.0"
     inkscape:pageshadow="2"
     inkscape:pageopacity="0.0"
     inkscape:pagecheckerboard="0"
     showgrid="false"
     fit-margin-top="0"
     fit-margin-left="0"
     fit-margin-right="0"
     fit-margin-bottom="0"
     inkscape:zoom="1.1425185"
     inkscape:cx="390.80331"
     inkscape:cy="262.14018"
     inkscape:current-layer="g8" /><g
     id="g8"
     inkscape:groupmode="layer"
     inkscape:label="Ropecon_logo_black"
     transform="matrix(1.3333333,0,0,-1.3333333,-64.815172,309.90541)"><path
       d="m 732.3984,121.557 c 0.446,4.493 0,17.734 0,45.294 h 24.565 c 0.027,-6.426 0.013,-45.184 0.005,-67.983 0.056,-3.232 0.544,-9.62 5.019,-12.085 -4.485,-4.483 -21.643,-14.154 -32.337,6.428 -8.827,16.155 -11.578,22.981 -19.968,39.04 1.583,-5.887 0.982,-33.182 0.982,-49.413 h -25.751 c 0,19.653 0.093,48.502 0.093,66.023 0,5.563 0.423,10.248 -6.029,12.146 3.702,7.44 15.292,10.873 23.377,8.036 14.102,-4.945 22.44,-35.733 30.044,-47.486"
       style="fill:#231f20;fill-opacity:1;fill-rule:evenodd;stroke:none"
       id="path20" /><path
       d="m 258.9102,156.6244 v -29.952 c 17.5,-1.204 22.012,32.778 0,29.952 m 22.648,-40.182 c 4.168,-10.687 15.767,-21.715 21.915,-22.645 -0.566,-16.578 -21.667,-15.53 -29.952,-8.038 -8.056,7.288 -8.177,21.41 -12.42,30.518 -0.145,0 -2.079,-0.005 -2.191,-0.005 v -33.434 h -25.546 v 82.553 c 20.126,4.302 46.456,6.653 58.421,-6.576 11.563,-12.784 4.611,-36.349 -10.227,-42.373"
       style="fill:#231f20;fill-opacity:1;fill-rule:evenodd;stroke:none"
       id="path24" /><path
       d="m 343.9023,93.0658 c 19.52,0.556 18.249,68.916 -2.923,62.827 -18.605,-5.35 -13.855,-63.306 2.923,-62.827 m -6.575,75.246 c 15.749,2.314 30.647,-4.52 37.989,-14.611 10.985,-15.101 11.717,-46.725 -3.654,-62.096 -13.625,-13.625 -40.778,-15.475 -56.252,0 -26.24,26.237 -9.301,72.125 21.917,76.707"
       style="fill:#231f20;fill-opacity:1;fill-rule:evenodd;stroke:none"
       id="path28" /><path
       d="m 414.7432,156.6244 v -31.313 c 20.25,-1.777 19.874,35.014 0,31.313 m -0.102,-43.103 c -0.87,-11.584 1.006,-20.164 8.449,-24.108 -9.026,-13.508 -30.435,-10.663 -33.286,5.112 -3.458,19.129 2.646,53.083 0,70.866 20.26,5.25 48.154,5.95 59.172,-7.307 16.708,-20.102 -4.884,-50.349 -34.335,-44.563"
       style="fill:#231f20;fill-opacity:1;fill-rule:evenodd;stroke:none"
       id="path32" /><path
       d="m 573.0488,136.8988 c -0.724,7.806 -0.225,17.518 -8.768,18.263 -18.238,1.592 -21.125,-37.844 -7.305,-51.138 9.879,-9.504 26.485,-7.027 38.719,2.191 -3.564,-16.096 -15.799,-26.435 -35.065,-25.568 -46.49,2.092 -53.8,82.707 -2.923,88.396 15.044,1.682 31.444,-3.409 35.067,-14.611 4.501,-13.92 -7.079,-24.016 -19.725,-17.533"
       style="fill:#231f20;fill-opacity:1;fill-rule:evenodd;stroke:none"
       id="path36" /><path
       d="m 638.0674,93.0658 c 19.519,0.556 18.249,68.916 -2.923,62.827 -18.604,-5.35 -13.855,-63.306 2.923,-62.827 m -6.575,75.246 c 15.749,2.314 30.647,-4.52 37.987,-14.611 10.987,-15.101 11.719,-46.725 -3.651,-62.096 -13.626,-13.625 -40.778,-15.475 -56.253,0 -26.24,26.237 -9.3,72.125 21.917,76.707"
       style="fill:#231f20;fill-opacity:1;fill-rule:evenodd;stroke:none"
       id="path40" /><path
       d="m 518.2568,166.851 c 4.735,-19.025 -15.786,-24.132 -32.358,-19.725 v -16.071 h 20.668 v -12.421 h -20.668 c 0.042,-3.847 -0.053,-9.835 0.943,-12.419 5.345,-13.863 26.072,-7.789 32.546,-3.322 -2.689,-24.662 -39.728,-28.275 -52.269,-12.02 -12.575,16.298 -4.916,48.788 -6.575,75.693 v 0.285 z"
       style="fill:#231f20;fill-opacity:1;fill-rule:evenodd;stroke:none"
       id="path44" /><path
       d="m 131.9155,105.2279 c 2.593,1.385 5.2,0.922 6.237,0.318 0.13,-0.093 0.318,-0.733 0.159,-0.864 -0.956,-0.778 -2.869,-2.241 -4.054,-2.98 -1.383,-0.865 -3.778,-1.827 -4.209,-1.048 -0.432,0.776 -0.724,3.195 1.867,4.574 m 54.32,69.295 c -2.642,3.947 -9.563,14.218 -17.17,20.069 -5.099,4.109 -1.687,6.188 -0.035,6.776 2.695,0.768 5.964,0.895 9.286,-2.429 1.101,-1.101 2.255,-2.47 3.425,-3.982 0.211,-0.275 2.077,-3.407 2.403,-4.076 0.481,-0.985 1.328,-2.807 2.106,-4.559 0.632,-1.424 2.34,-4.791 3.826,-3.99 0.864,0.087 -0.403,3.052 -0.748,4.261 -0.387,1.353 -0.415,2.357 -0.809,3.383 -0.433,1.121 -0.772,3.265 -1.42,4.446 -0.777,1.416 -0.271,2.811 -5.059,8.414 -3.286,4.255 -4.117,4.715 -4.117,6.147 0,0.832 1.629,0.93 4.778,-1.277 1.506,-1.057 3.361,-2.63 3.772,-3.215 0.674,-0.959 1.742,-2.232 2.563,-4.123 0.549,-1.266 1.751,-3.924 2.118,-4.791 0,0 1.982,-5.44 3.328,-4.094 0.387,0.387 -0.761,5.818 -1.127,6.933 -0.521,1.588 -0.979,4.086 -1.31,4.765 -0.611,1.254 -1.214,2.654 -1.672,3.707 -1.899,4.375 -3.566,6.498 -6.1,9.275 -2.946,3.411 -8.434,7.617 -23.324,9.673 -0.937,0.13 -0.494,1.981 0.876,2.342 1.982,0.525 4.236,0.532 6.21,0.532 1.918,0 3.297,-0.917 4.935,-1.049 0.629,-0.116 0.599,0.279 0.577,0.53 -0.144,1.648 -6.585,3.957 -10.685,4.132 -25.139,1.076 -33.187,-6.337 -35.043,-8.244 -1.967,-2.019 -3.917,-5.073 -4.263,-8.526 -0.345,-3.454 1.805,-9.217 2.601,-10.011 0.246,-0.245 0.452,-0.522 0.184,-0.522 -11.98,1.588 -27.023,1.249 -39.077,-3.273 -20.184,-7.568 -36.507,-28.04 -38.272,-48.601 -5.697,-66.355 54.326,-71.878 56.493,-72.215 0.397,-0.01 6.65,-0.438 7.353,-0.404 1.037,0.05 7.843,0.243 9.869,0.556 0.979,0.152 6.479,0.86 9.184,1.311 11.337,2.009 17.526,6.134 20.978,8.3 4.45,2.795 6.256,4.025 6.84,3.957 0.583,-0.063 0.649,-0.412 0.714,-1.449 0.065,-1.036 0.171,-1.853 -0.672,-2.759 -0.842,-0.906 0.13,-1.293 1.49,0.065 1.361,1.361 6.221,6.476 7.193,13.534 0.885,5.332 -0.194,4.469 -1.556,3.95 -0.293,-0.11 -0.576,-1.56 -1.353,-2.273 -0.778,-0.713 -10.527,-10.692 -32.537,-14.707 -8.975,0 -12.128,1.236 -14.911,4.018 -1.713,1.065 -1.221,2.991 -0.638,2.667 0.582,-0.323 3.304,-1.747 5.831,-2.202 2.527,-0.453 6.858,-0.3 8.714,-0.191 5.166,0.538 17.098,4.281 28.881,15.117 0.389,0.453 5.171,2.558 6.402,3.53 1.232,0.971 2.038,1.661 2.104,1.985 0.065,0.323 0.088,0.846 -0.613,1.188 -0.729,0.356 -0.779,0.583 -1.361,1.1 -0.583,0.518 -4.018,3.819 -5.832,4.467 -1.814,0.648 -5.184,1.555 -6.933,1.62 -1.75,0.064 -2.721,-0.065 -3.239,-0.39 -0.519,-0.321 0.064,-0.968 0.064,-0.968 0,0 1.944,-1.493 2.462,-1.751 0.519,-0.258 1.642,-1.774 1.75,-2.137 0.389,-1.296 -0.066,-2.461 -0.907,-3.626 -0.843,-1.165 -1.944,-2.395 -5.184,-3.302 -3.24,-0.906 -5.911,-1.645 -7.956,-1.279 -2.905,0.522 -5.262,1.452 -7.367,1.627 -2.324,0.19 -5.78,-2.43 -6.435,-2.599 -0.654,-0.173 -4.604,0.451 -10.058,3.223 -5.453,2.769 -8.409,4.642 -10.859,7.732 -3.845,4.399 -4.988,12.486 -4.614,14.56 0.425,2.085 1.337,2.648 0.765,2.768 -0.387,0.079 -3.046,-0.129 -4.535,-5.051 -1.491,-4.921 0.344,-10.535 3.001,-14.873 2.527,-5.246 6.161,-8.412 5.746,-8.827 -0.66,-0.661 -2.334,0.042 -4.277,1.727 -1.943,1.683 -5.449,5.104 -7.657,8.86 -2.178,3.87 -2.266,7.574 -1.932,11.182 0.162,1.756 0.566,4.937 0.909,5.928 0.285,0.82 0.939,2.157 0.736,2.257 -0.389,0.193 -2.715,-0.857 -4.465,-4.938 -1.749,-4.077 -2.338,-10.613 -1.236,-14.823 1.101,-4.211 5.818,-10.237 5.818,-10.841 0,-0.687 -2.82,0.562 -3.598,1.207 -0.985,0.82 -3.225,2.484 -5.626,7.017 -1.667,3.147 -3.815,9.648 -3.75,15.346 0.295,25.974 14.983,33.217 30.801,37.321 25.306,5.577 72.149,-10.311 66.016,-61.69 -2.035,-11.481 -5.809,-21.303 -18.167,-32.266 -3.057,-2.762 -8.671,-5.983 -10.159,-6.827 -7.73,-4.375 -15.045,-5.948 -18.099,-5.482 -1.528,-0.316 -3.028,1.301 3.066,3.152 0.386,0.17 0.102,0.867 -0.408,1.163 -1.808,1.042 -7.716,0.941 -11.255,0.133 -3.175,-0.454 -12.505,-2.137 -16.847,-1.812 -4.342,0.323 -8.08,1.036 -13.573,3.988 -0.473,0.316 -2.82,1.45 -3.21,0.737 -0.388,-0.711 -0.453,-1.1 0.713,-2.2 2.303,-2.173 7.673,-8.57 8.294,-9.26 1.167,-1.296 2.981,-3.044 4.925,-4.404 19.328,-14.044 36.15,-6.244 35.744,-3.472 -0.1,0.617 -0.108,1.463 -1.532,1.4 -1.422,-0.066 -4.213,-0.512 -5.649,-0.397 0.211,-0.018 -4.739,0.039 -8.087,3.764 -0.572,0.784 -0.867,1.489 0.907,1.358 1.749,-0.128 13.282,0.317 23.913,2.851 8.164,1.946 13.771,3.938 20.285,7.706 10.114,5.846 44.545,30.477 28.267,82.039 -3.435,10.88 -5.93,15.471 -11.898,24.381"
       style="fill:#231f20;fill-opacity:1;fill-rule:evenodd;stroke:none"
       id="path48" /></g></svg>
